<?xml version="1.0" encoding="UTF-8" standalone="no"?>
<!-- Created with Inkscape (http://www.inkscape.org/) -->

<svg
   xmlns:dc="http://purl.org/dc/elements/1.1/"
   xmlns:cc="http://creativecommons.org/ns#"
   xmlns:rdf="http://www.w3.org/1999/02/22-rdf-syntax-ns#"
   xmlns:svg="http://www.w3.org/2000/svg"
   xmlns="http://www.w3.org/2000/svg"
   xmlns:sodipodi="http://sodipodi.sourceforge.net/DTD/sodipodi-0.dtd"
   xmlns:inkscape="http://www.inkscape.org/namespaces/inkscape"
   width="100mm"
   height="100mm"
   viewBox="0 0 354.33071 354.33071"
   id="svg2"
   version="1.1"
   inkscape:version="0.91 r13725"
   sodipodi:docname="flower-5.svg">
  <defs
     id="defs4" />
  <sodipodi:namedview
     id="base"
     pagecolor="#ffffff"
     bordercolor="#666666"
     borderopacity="1.0"
     inkscape:pageopacity="0.0"
     inkscape:pageshadow="2"
     inkscape:zoom="1.256095"
     inkscape:cx="476.19795"
     inkscape:cy="198.04437"
     inkscape:document-units="px"
     inkscape:current-layer="layer1"
     showgrid="true"
     inkscape:snap-center="true"
     inkscape:object-nodes="false"
     inkscape:snap-global="false"
     inkscape:window-width="1890"
     inkscape:window-height="1021"
     inkscape:window-x="30"
     inkscape:window-y="840"
     inkscape:window-maximized="1">
    <inkscape:grid
       type="xygrid"
       id="grid3340"
       empspacing="15"
       units="mm"
       spacingx="3.543307"
       spacingy="3.543307" />
  </sodipodi:namedview>
  <metadata
     id="metadata7">
    <rdf:RDF>
      <cc:Work
         rdf:about="">
        <dc:format>image/svg+xml</dc:format>
        <dc:type
           rdf:resource="http://purl.org/dc/dcmitype/StillImage" />
        <dc:title></dc:title>
      </cc:Work>
    </rdf:RDF>
  </metadata>
  <g
     inkscape:label="Layer 1"
     inkscape:groupmode="layer"
     id="layer1"
     transform="translate(0,-698.0315)">
    <path
       sodipodi:type="star"
       style="opacity:1;fill:none;fill-opacity:1;stroke:#000000;stroke-opacity:1"
       id="path3342"
       sodipodi:sides="5"
       sodipodi:cx="175"
       sodipodi:cy="129.33072"
       sodipodi:r1="25"
       sodipodi:r2="21.650635"
       sodipodi:arg1="0"
       sodipodi:arg2="0.62831853"
       inkscape:flatsided="true"
       inkscape:rounded="0"
       inkscape:randomized="0.004"
       d="m 200.02064,129.37572 -17.34729,23.71861 -27.90044,-9.082 4.9e-4,-29.40108 27.90008,-9.00609 z"
       transform="translate(226.55747,909.54418)"
       inkscape:transform-center-x="-0.030604714"
       inkscape:transform-center-y="0.020503096" />
    <path
       style="opacity:0.36199999;fill:none;fill-rule:evenodd;stroke:#000000;stroke-width:0.34724408;stroke-linecap:butt;stroke-linejoin:miter;stroke-miterlimit:4;stroke-dasharray:none;stroke-opacity:1"
       d="m 400.8409,1041.6288 c -0.56786,2.385 -0.36954,6.1155 0.70309,8.9283 1.277,3.3486 5.35001,5.3732 5.9173,5.0196 1.26544,-0.7888 1.83463,-1.9528 2.52984,-3.0245 1.38637,-2.137 2.74456,-3.7574 2.36095,-4.7784 -0.45841,-1.22 -2.16758,-1.9617 -3.86268,-2.7719 -2.51334,-1.2013 -1.48152,-1.3872 -4.96746,-4.1013 l -1.16344,1.3439 z"
       id="path3425"
       inkscape:connector-curvature="0"
       sodipodi:nodetypes="csssssccc"
       inkscape:transform-center-x="-4.9549512"
       inkscape:transform-center-y="9.2531279" />
    <path
       inkscape:transform-center-y="0.13322531"
       inkscape:transform-center-x="-0.27373721"
       transform="matrix(0.13112729,0.01052726,-0.01066852,0.13289629,380.03203,1019.981)"
       d="m 200.02064,129.37572 -17.34729,23.71861 -27.90044,-9.082 4.9e-4,-29.40108 27.90008,-9.00609 z"
       inkscape:randomized="0.004"
       inkscape:rounded="0"
       inkscape:flatsided="true"
       sodipodi:arg2="0.62831853"
       sodipodi:arg1="0"
       sodipodi:r2="21.650635"
       sodipodi:r1="25"
       sodipodi:cy="129.33072"
       sodipodi:cx="175"
       sodipodi:sides="5"
       id="path4235"
       style="opacity:1;fill:none;fill-opacity:1;stroke:#000000;stroke-width:1.33776808;stroke-miterlimit:4;stroke-dasharray:none;stroke-opacity:1"
       sodipodi:type="star" />
    <path
       style="fill:none;fill-rule:evenodd;stroke:#000000;stroke-width:0.07086614;stroke-linecap:butt;stroke-linejoin:miter;stroke-miterlimit:4;stroke-dasharray:none;stroke-opacity:1"
       d="m 404.83393,1039.2653 -5.89625,-0.4976 3.38351,3.4084 -1.36833,-5.7221"
       id="path4239"
       inkscape:connector-curvature="0" />
    <path
       inkscape:transform-center-y="-1.6493658"
       inkscape:transform-center-x="-9.9224546"
       sodipodi:nodetypes="csssssccc"
       inkscape:connector-curvature="0"
       id="path4247"
       d="m 403.75561,1040.5355 c 2.0498,1.3451 5.62541,2.4271 8.63528,2.3749 3.58337,-0.062 6.87231,-3.2039 6.7327,-3.8577 -0.31144,-1.4582 -1.21255,-2.3893 -1.98392,-3.4075 -1.53826,-2.0305 -2.6002,-3.8588 -3.69077,-3.8452 -1.30325,0.016 -2.58192,1.3713 -3.92029,2.6899 -1.98441,1.955 -1.80831,0.9215 -5.54611,3.2767 l 0.86824,1.5511 z"
       style="opacity:0.36199999;fill:none;fill-rule:evenodd;stroke:#000000;stroke-width:0.34724408;stroke-linecap:butt;stroke-linejoin:miter;stroke-miterlimit:4;stroke-dasharray:none;stroke-opacity:1" />
    <path
       style="opacity:0.36199999;fill:none;fill-rule:evenodd;stroke:#000000;stroke-width:0.34724408;stroke-linecap:butt;stroke-linejoin:miter;stroke-miterlimit:4;stroke-dasharray:none;stroke-opacity:1"
       d="m 403.66727,1037.3537 c 1.91429,-1.5318 4.05158,-4.5958 4.93506,-7.4736 1.05189,-3.426 -0.91552,-7.527 -1.58032,-7.5969 -1.48296,-0.156 -2.64756,0.412 -3.85473,0.8297 -2.40733,0.833 -4.47474,1.2758 -4.79995,2.3169 -0.38864,1.244 0.50328,2.8798 1.34195,4.561 1.24349,2.4928 0.31547,2.0049 1.39586,6.2887 l 1.74388,-0.3445 z"
       id="path4249"
       inkscape:connector-curvature="0"
       sodipodi:nodetypes="csssssccc"
       inkscape:transform-center-x="-2.0703953"
       inkscape:transform-center-y="-9.2002261" />
    <path
       inkscape:transform-center-y="-5.5751177"
       inkscape:transform-center-x="7.8811327"
       sodipodi:nodetypes="csssssccc"
       inkscape:connector-curvature="0"
       id="path4251"
       d="m 400.56224,1036.4704 c -0.91008,-2.2765 -3.22161,-5.2113 -5.71894,-6.8921 -2.97313,-2.0013 -7.46863,-1.3091 -7.72855,-0.6933 -0.5798,1.3738 -0.37432,2.6532 -0.32507,3.9296 0.0982,2.5455 -0.0782,4.6524 0.82355,5.2659 1.07765,0.733 2.90192,0.3544 4.7542,0.04 2.74639,-0.4663 2.01014,0.2801 6.42311,0.4899 l 0.17654,-1.7688 z"
       style="opacity:0.36199999;fill:none;fill-rule:evenodd;stroke:#000000;stroke-width:0.34724408;stroke-linecap:butt;stroke-linejoin:miter;stroke-miterlimit:4;stroke-dasharray:none;stroke-opacity:1" />
    <path
       style="opacity:0.36199999;fill:none;fill-rule:evenodd;stroke:#000000;stroke-width:0.34724408;stroke-linecap:butt;stroke-linejoin:miter;stroke-miterlimit:4;stroke-dasharray:none;stroke-opacity:1"
       d="m 398.81639,1039.1966 c -2.4418,0.2202 -5.91552,1.5946 -8.24106,3.5062 -2.76871,2.2756 -3.39271,6.7811 -2.87705,7.2065 1.15028,0.9488 2.43491,1.1183 3.67201,1.4365 2.46702,0.6348 4.43523,1.407 5.28117,0.7187 1.01093,-0.8227 1.17048,-2.679 1.39954,-4.5437 0.33961,-2.7649 0.84398,-1.8458 2.3085,-6.014 l -1.64421,-0.6755 z"
       id="path4253"
       inkscape:connector-curvature="0"
       sodipodi:nodetypes="csssssccc"
       inkscape:transform-center-x="7.5728061"
       inkscape:transform-center-y="6.7599893" />
    <g
       id="g4239"
       transform="matrix(1.5,0,0,1.5,-90.983218,-435.47932)">
      <path
         inkscape:connector-curvature="0"
         d="m 174.38897,871.66418 c -7.24206,0.65296 -17.54466,4.72949 -24.44191,10.39878 -8.21163,6.74934 -10.06233,20.11194 -8.53295,21.37353 3.41158,2.81423 7.22162,3.31674 10.8907,4.26071 7.31686,1.88253 13.15431,4.17298 15.66326,2.13139 2.99828,-2.43984 3.47149,-7.94541 4.15085,-13.47605 1.00724,-8.20036 2.50313,-5.47431 6.84671,-17.8365 l -4.87651,-2.00371 z m 5.17796,-8.08547 c -2.69918,-6.75192 -9.55487,-15.456 -16.96163,-20.44127 -8.81791,-5.93536 -22.15098,-3.88262 -22.92187,-2.05606 -1.71961,4.07454 -1.11018,7.86892 -0.96411,11.65468 0.29125,7.54953 -0.23193,13.79841 2.44254,15.61776 3.19617,2.17419 8.60672,1.05125 14.10034,0.11864 8.14543,-1.38287 5.96181,0.83091 19.0501,1.45312 l 0.52359,-5.24606 z m 9.20911,2.61955 c 5.67754,-4.54312 12.01646,-13.63046 14.63675,-22.16549 3.11976,-10.16127 -2.71532,-22.32415 -4.68703,-22.53159 -4.39826,-0.46264 -7.85231,1.22209 -11.43262,2.46093 -7.13983,2.47048 -13.2715,3.7838 -14.23603,6.87139 -1.15265,3.68972 1.49267,8.54123 3.98005,13.52748 3.68803,7.39317 0.93564,5.94627 4.13994,18.65152 l 5.17212,-1.02195 z m 0.26189,9.43689 c 6.07944,3.9893 16.68423,7.19861 25.61111,7.04373 10.62781,-0.18418 20.38237,-9.50256 19.96831,-11.44143 -0.92369,-4.32498 -3.59627,-7.08653 -5.88405,-10.10638 -4.56228,-6.02211 -7.71185,-11.44452 -10.94634,-11.4043 -3.86527,0.048 -7.65764,4.06712 -11.62707,7.9778 -5.8855,5.79836 -5.36321,2.73305 -16.44904,9.71838 l 2.57509,4.60045 z m -8.64465,3.24258 c -1.6842,7.07372 -1.09601,18.13786 2.08527,26.48008 3.78742,9.93175 15.86743,15.93627 17.54994,14.88754 3.75313,-2.33939 5.44127,-5.79175 7.50318,-8.97012 4.11179,-6.33824 8.14,-11.14405 7.00226,-14.17211 -1.35958,-3.61857 -6.42875,-5.81824 -11.4562,-8.22124 -7.45424,-3.56299 -4.39399,-4.1142 -14.73284,-12.16395 l -3.45061,3.98604 z"
         style="opacity:1;fill:#000000;fill-opacity:1;fill-rule:evenodd;stroke:none;stroke-width:0.34724408;stroke-linecap:butt;stroke-linejoin:miter;stroke-miterlimit:4;stroke-dasharray:none;stroke-opacity:1"
         id="path4282-6" />
      <path
         inkscape:connector-curvature="0"
         id="path4152"
         d="M 181.96644,721.56738 A 149.39511,149.39511 0 0 0 32.57516,870.95865 149.39511,149.39511 0 0 0 181.96644,1020.3499 149.39511,149.39511 0 0 0 331.35771,870.95865 149.39511,149.39511 0 0 0 181.96644,721.56738 Z m 0,5.88063 A 143.50985,143.50985 0 0 1 325.47708,870.95865 143.50985,143.50985 0 0 1 181.96644,1014.4693 143.50985,143.50985 0 0 1 38.455797,870.95865 143.50985,143.50985 0 0 1 181.96644,727.44801 Z"
         style="opacity:1;fill:#000000;fill-opacity:1;stroke:none;stroke-width:0.07086614;stroke-miterlimit:4;stroke-dasharray:none;stroke-opacity:1" />
    </g>
    <text
       xml:space="preserve"
       style="font-style:normal;font-variant:normal;font-weight:normal;font-stretch:normal;font-size:11.79025936px;line-height:125%;font-family:'DejaVu Sans Mono';-inkscape-font-specification:'DejaVu Sans Mono';letter-spacing:0px;word-spacing:0px;fill:#000000;fill-opacity:1;stroke:none;stroke-width:1px;stroke-linecap:butt;stroke-linejoin:miter;stroke-opacity:1"
       x="308.47842"
       y="1079.3403"
       id="text4189"
       sodipodi:linespacing="125%"><tspan
         sodipodi:role="line"
         id="tspan4191"
         x="308.47842"
         y="1079.3403">As reference, I used the image from:</tspan><tspan
         sodipodi:role="line"
         x="308.47842"
         y="1094.0781"
         id="tspan4193">https://mathjokes4mathyfolks.wordpress.com/2011/05/12/pentagon-flower-and-polygonal-jokes/</tspan></text>
  </g>
</svg>
